<svg xmlns="http://www.w3.org/2000/svg" xmlns:xlink="http://www.w3.org/1999/xlink" width="70" height="70" viewBox="0 0 70 70" fill="none">
<path d="M0 70L70 70L70 0L0 0L0 70Z"   fill="#FFFFFF" fill-opacity="0.01">
</path>
<path d="M49.5833 30.625C45.2738 30.625 41.4009 32.4943 38.7311 35.4664C36.4114 38.0488 35 41.4638 35 45.2083C35 46.0526 35.0718 46.88 35.2094 47.685C35.9594 52.0692 38.6667 55.7855 42.3997 57.9025C44.5201 59.1051 46.9716 59.7917 49.5833 59.7917C57.6374 59.7917 64.1667 53.2624 64.1667 45.2083C64.1667 37.1543 57.6374 30.625 49.5833 30.625Z" stroke="rgba(255, 255, 255, 1)" stroke-width="3" stroke-linejoin="round" stroke-linecap="round" >
</path>
<path    stroke="rgba(255, 255, 255, 1)" stroke-width="3" stroke-linejoin="round" stroke-linecap="round"  d="M49.5833 17.5L49.5833 29.1667L49.5833 30.625C45.2738 30.625 41.4009 32.4943 38.7311 35.4664C36.4114 38.0488 35 41.4638 35 45.2083C35 46.0526 35.0717 46.88 35.2094 47.685C35.9594 52.0692 38.6667 55.7855 42.3997 57.9025C38.5169 59.0765 33.3632 59.7917 27.7083 59.7917C15.6271 59.7917 5.83333 56.527 5.83333 52.5L5.83333 40.8333L5.83333 29.1667L5.83333 17.5">
</path>
<path d="M27.7083 10.2083C15.6271 10.2083 5.83333 13.4729 5.83333 17.5C5.83333 21.527 15.6271 24.7916 27.7083 24.7916C39.7896 24.7916 49.5833 21.527 49.5833 17.5C49.5833 13.4729 39.7896 10.2083 27.7083 10.2083Z" stroke="rgba(255, 255, 255, 1)" stroke-width="3" stroke-linejoin="round" stroke-linecap="round" >
</path>
<path    stroke="rgba(255, 255, 255, 1)" stroke-width="3" stroke-linejoin="round" stroke-linecap="round"  d="M5.83333 40.8333C5.83333 44.8604 15.6271 48.125 27.7083 48.125C30.3435 48.125 32.8698 47.9697 35.2094 47.685">
</path>
<path    stroke="rgba(255, 255, 255, 1)" stroke-width="3" stroke-linejoin="round" stroke-linecap="round"  d="M5.83333 29.1667C5.83333 33.1937 15.6271 36.4584 27.7083 36.4584C31.7279 36.4584 35.4944 36.097 38.7311 35.4664">
</path>
<path    stroke="rgba(255, 255, 255, 1)" stroke-width="3" stroke-linejoin="round" stroke-linecap="round"  d="M56.1458 42.2917L48.125 50.3125L43.75 45.9375">
</path>
</svg>
