<svg xmlns="http://www.w3.org/2000/svg" xmlns:xlink="http://www.w3.org/1999/xlink" width="14.5" height="12.0621337890625" viewBox="0 0 14.5 12.0621337890625" fill="none">
<path d="M14.5 6.03106C13.8701 9.46206 10.8633 12.0621 7.25 12.0621C3.63673 12.0621 0.63058 9.46206 0 6.03106C0.62991 2.60006 3.63673 0 7.25 0C10.8633 0 13.8694 2.60006 14.5 6.03106ZM10.6006 6.03109C10.6006 7.88033 9.09923 9.38167 7.24999 9.38167C5.40075 9.38167 3.8994 7.88033 3.8994 6.03109C3.8994 4.18185 5.40075 2.6805 7.24999 2.6805C9.09923 2.6805 10.6006 4.18185 10.6006 6.03109Z" fill-rule="evenodd"  fill="#7A7A7A" >
</path>
<path d="M9.26033 6.03104C9.26033 4.9215 8.35952 4.02069 7.24998 4.02069C6.14043 4.02069 5.23962 4.9215 5.23962 6.03104C5.23962 7.14059 6.14043 8.0414 7.24998 8.0414C8.35952 8.0414 9.26033 7.14059 9.26033 6.03104Z"   fill="#7A7A7A" >
</path>
</svg>
