<svg xmlns="http://www.w3.org/2000/svg" xmlns:xlink="http://www.w3.org/1999/xlink" width="258" height="70" viewBox="0 0 258 70" fill="none">
<g  opacity="0.9">
<path d="M153 56.6847L159 56.6847L159 13.6847L153 13.6847L153 56.6847Z"   fill="#333333" >
</path>
<path d="M165 56.6847L174 56.6847L174 13.6847L165 13.6847L165 56.6847Z"   fill="#333333" >
</path>
<path d="M93 56.6847L110 56.6847L110 13.6847L93 13.6847L93 56.6847Z"   fill="#333333" >
</path>
<path d="M0 56.3151L9.52265 56.3151L9.52265 13.6847L0 13.6847L0 56.3151Z"   fill="#333333" >
</path>
<path d="M14.1384 56.3151L18.8998 56.3151L18.8998 13.6847L14.1384 13.6847L14.1384 56.3151Z"   fill="#333333" >
</path>
<path d="M24.2166 56.3151L28.978 56.3151L28.978 13.6847L24.2166 13.6847L24.2166 56.3151Z"   fill="#333333" >
</path>
<path d="M34.6306 56.3151L39.392 56.3151L39.392 13.6847L34.6306 13.6847L34.6306 56.3151Z"   fill="#333333" >
</path>
<path d="M60.7464 56.3151L65.5078 56.3151L65.5078 13.6847L60.7464 13.6847L60.7464 56.3151Z"   fill="#333333" >
</path>
<path d="M70.8245 56.3151L75.5859 56.3151L75.5859 13.6847L70.8245 13.6847L70.8245 56.3151Z"   fill="#333333" >
</path>
<path d="M81.2386 56.3151L86 56.3151L86 13.6847L81.2386 13.6847L81.2386 56.3151Z"   fill="#333333" >
</path>
<path d="M116.176 56.3151L120.938 56.3151L120.938 13.6847L116.176 13.6847L116.176 56.3151Z"   fill="#333333" >
</path>
<path d="M126.59 56.3151L131.352 56.3151L131.352 13.6847L126.59 13.6847L126.59 56.3151Z"   fill="#333333" >
</path>
<path d="M44 56.6847L55 56.6847L55 13.6847L44 13.6847L44 56.6847Z"   fill="#333333" >
</path>
<path d="M136.727 56.3151L146.249 56.3151L146.249 13.6847L136.727 13.6847L136.727 56.3151Z"   fill="#333333" >
</path>
<path d="M185.83 56.6292L177.811 56.6292L177.811 13.3707L185.83 13.3707L185.83 56.6292ZM197.858 56.6292L193.849 56.6292L193.849 13.3707L197.858 13.3707L197.858 56.6292ZM201.868 56.6292L201.868 13.3707L209.887 13.3707L209.887 56.6292L201.868 56.6292ZM221.915 56.6292L213.896 56.6292L213.896 13.3707L221.915 13.3707L221.915 56.6292ZM225.924 56.6292L225.924 13.3707L233.943 13.3707L233.943 56.6292L225.924 56.6292ZM241.962 56.6292L237.953 56.6292L237.953 13.3707L241.962 13.3707L241.962 56.6292ZM245.972 13.3707L245.972 56.6292L258 56.6292L258 13.3707L245.972 13.3707Z" fill-rule="evenodd"  fill="#333333" >
</path>
</g>
</svg>
